<?xml version="1.0" encoding="utf-8"?>
<svg version="1.1" xmlns:xlink="http://www.w3.org/1999/xlink" width="130px" height="18px" xmlns="http://www.w3.org/2000/svg">
  <g transform="matrix(1 0 0 1 -167 -6 )">
    <path d="M 14.7727272727273 18  C 6.49999999999999 18  0 14.04  0 9  C 0 3.96000000000001  6.49999999999999 0  14.7727272727273 0  L 35.4545454545455 0  L 76.8181818181818 0  L 92.5757575757576 0  L 100.454545454545 0  L 102.424242424242 0  L 115.227272727273 0  C 123.5 0  130 3.96000000000001  130 9  C 130 14.04  123.5 18  115.227272727273 18  L 98.4848484848485 18  L 82.7272727272727 18  L 61.0606060606061 18  L 14.7727272727273 18  Z " fill-rule="nonzero" fill="#d7d7d7" stroke="none" transform="matrix(1 0 0 1 167 6 )" />
  </g>
</svg>