<?xml version="1.0" encoding="utf-8"?>
<svg version="1.1" xmlns:xlink="http://www.w3.org/1999/xlink" width="14px" height="14px" xmlns="http://www.w3.org/2000/svg">
  <g transform="matrix(1 0 0 1 -221 -11 )">
    <path d="M 1.07692307692308 10.75  L 1.07692307692308 13  L 3.5 13  L 3.5 10.75  L 1.07692307692308 10.75  Z M 4.03846153846154 10.75  L 4.03846153846154 13  L 6.73076923076923 13  L 6.73076923076923 10.75  L 4.03846153846154 10.75  Z M 1.07692307692308 7.75  L 1.07692307692308 10.25  L 3.5 10.25  L 3.5 7.75  L 1.07692307692308 7.75  Z M 4.03846153846154 7.75  L 4.03846153846154 10.25  L 6.73076923076923 10.25  L 6.73076923076923 7.75  L 4.03846153846154 7.75  Z M 1.07692307692308 5  L 1.07692307692308 7.25  L 3.5 7.25  L 3.5 5  L 1.07692307692308 5  Z M 7.26923076923077 10.75  L 7.26923076923077 13  L 9.96153846153846 13  L 9.96153846153846 10.75  L 7.26923076923077 10.75  Z M 4.03846153846154 5  L 4.03846153846154 7.25  L 6.73076923076923 7.25  L 6.73076923076923 5  L 4.03846153846154 5  Z M 10.5 10.75  L 10.5 13  L 12.9230769230769 13  L 12.9230769230769 10.75  L 10.5 10.75  Z M 7.26923076923077 7.75  L 7.26923076923077 10.25  L 9.96153846153846 10.25  L 9.96153846153846 7.75  L 7.26923076923077 7.75  Z M 4.22776442307692 3.67578125  C 4.28104967948718 3.62630208333333  4.30769230769231 3.56770833333333  4.30769230769231 3.5  L 4.30769230769231 1.25  C 4.30769230769231 1.18229166666667  4.28104967948718 1.12369791666667  4.22776442307692 1.07421875  C 4.17447916666667 1.02473958333333  4.11137820512821 1  4.03846153846154 1  L 3.5 1  C 3.42708333333333 1  3.36398237179487 1.02473958333333  3.31069711538462 1.07421875  C 3.25741185897436 1.12369791666667  3.23076923076923 1.18229166666667  3.23076923076923 1.25  L 3.23076923076923 3.5  C 3.23076923076923 3.56770833333333  3.25741185897436 3.62630208333333  3.31069711538462 3.67578125  C 3.36398237179487 3.72526041666667  3.42708333333333 3.75  3.5 3.75  L 4.03846153846154 3.75  C 4.11137820512821 3.75  4.17447916666667 3.72526041666667  4.22776442307692 3.67578125  Z M 10.5 7.75  L 10.5 10.25  L 12.9230769230769 10.25  L 12.9230769230769 7.75  L 10.5 7.75  Z M 7.26923076923077 5  L 7.26923076923077 7.25  L 9.96153846153846 7.25  L 9.96153846153846 5  L 7.26923076923077 5  Z M 10.5 5  L 10.5 7.25  L 12.9230769230769 7.25  L 12.9230769230769 5  L 10.5 5  Z M 10.6893028846154 3.67578125  C 10.7425881410256 3.62630208333333  10.7692307692308 3.56770833333333  10.7692307692308 3.5  L 10.7692307692308 1.25  C 10.7692307692308 1.18229166666667  10.7425881410256 1.12369791666667  10.6893028846154 1.07421875  C 10.6360176282051 1.02473958333333  10.5729166666667 1  10.5 1  L 9.96153846153846 1  C 9.8886217948718 1  9.82552083333333 1.02473958333333  9.77223557692308 1.07421875  C 9.71895032051282 1.12369791666667  9.69230769230769 1.18229166666667  9.69230769230769 1.25  L 9.69230769230769 3.5  C 9.69230769230769 3.56770833333333  9.71895032051282 3.62630208333333  9.77223557692308 3.67578125  C 9.82552083333333 3.72526041666667  9.8886217948718 3.75  9.96153846153846 3.75  L 10.5 3.75  C 10.5729166666667 3.75  10.6360176282051 3.72526041666667  10.6893028846154 3.67578125  Z M 13.6802884615385 2.296875  C 13.8934294871795 2.49479166666667  14 2.72916666666667  14 3  L 14 13  C 14 13.2708333333333  13.8934294871795 13.5052083333333  13.6802884615385 13.703125  C 13.4671474358974 13.9010416666667  13.2147435897436 14  12.9230769230769 14  L 1.07692307692308 14  C 0.78525641025641 14  0.532852564102564 13.9010416666667  0.319711538461538 13.703125  C 0.106570512820513 13.5052083333333  0 13.2708333333333  0 13  L 0 3  C 0 2.72916666666667  0.106570512820513 2.49479166666667  0.319711538461538 2.296875  C 0.532852564102564 2.09895833333333  0.78525641025641 2  1.07692307692308 2  L 2.15384615384615 2  L 2.15384615384615 1.25  C 2.15384615384615 0.906250000000001  2.28565705128205 0.611979166666666  2.54927884615385 0.3671875  C 2.81290064102564 0.122395833333333  3.12980769230769 0  3.5 0  L 4.03846153846154 0  C 4.40865384615385 0  4.7255608974359 0.122395833333333  4.98918269230769 0.3671875  C 5.25280448717949 0.611979166666666  5.38461538461539 0.906250000000001  5.38461538461539 1.25  L 5.38461538461539 2  L 8.61538461538462 2  L 8.61538461538462 1.25  C 8.61538461538462 0.906250000000001  8.74719551282051 0.611979166666666  9.01081730769231 0.3671875  C 9.2744391025641 0.122395833333333  9.59134615384615 0  9.96153846153846 0  L 10.5 0  C 10.8701923076923 0  11.1870993589744 0.122395833333333  11.4507211538462 0.3671875  C 11.714342948718 0.611979166666666  11.8461538461538 0.906250000000001  11.8461538461538 1.25  L 11.8461538461538 2  L 12.9230769230769 2  C 13.2147435897436 2  13.4671474358974 2.09895833333333  13.6802884615385 2.296875  Z " fill-rule="nonzero" fill="#797979" stroke="none" transform="matrix(1 0 0 1 221 11 )" />
  </g>
</svg>