<?xml version="1.0" encoding="utf-8"?>
<svg version="1.1" xmlns:xlink="http://www.w3.org/1999/xlink" width="61px" height="57px" xmlns="http://www.w3.org/2000/svg">
  <g transform="matrix(1 0 0 1 -550 -328 )">
    <path d="M 580.5 328.5  C 597.3 328.5  610.5 340.82  610.5 356.5  C 610.5 372.18  597.3 384.5  580.5 384.5  C 563.7 384.5  550.5 372.18  550.5 356.5  C 550.5 340.82  563.7 328.5  580.5 328.5  Z " fill-rule="nonzero" fill="#ffffff" stroke="none" fill-opacity="0" />
    <path d="M 580.5 328.5  C 597.3 328.5  610.5 340.82  610.5 356.5  C 610.5 372.18  597.3 384.5  580.5 384.5  C 563.7 384.5  550.5 372.18  550.5 356.5  C 550.5 340.82  563.7 328.5  580.5 328.5  Z " stroke-width="1" stroke="#a6a6a6" fill="none" stroke-opacity="0.349019607843137" />
  </g>
</svg>