<?xml version="1.0" encoding="utf-8"?>
<svg version="1.1" xmlns:xlink="http://www.w3.org/1999/xlink" width="9px" height="16px" xmlns="http://www.w3.org/2000/svg">
  <g transform="matrix(1 0 0 1 -41 -78 )">
    <path d="M 8.84536082474227 0.96192384769539  C 8.94845360824742 1.0688042752171  9 1.19171676686707  9 1.33066132264529  C 9 1.46960587842351  8.94845360824742 1.59251837007348  8.84536082474227 1.69939879759519  L 2.7680412371134 8  L 8.84536082474227 14.3006012024048  C 8.94845360824742 14.4074816299265  9 14.5303941215765  9 14.6693386773547  C 9 14.8082832331329  8.94845360824742 14.9311957247829  8.84536082474227 15.0380761523046  L 8.07216494845361 15.8396793587174  C 7.96907216494845 15.9465597862391  7.85051546391753 16  7.71649484536082 16  C 7.58247422680413 16  7.4639175257732 15.9465597862391  7.36082474226804 15.8396793587174  L 0.154639175257732 8.3687374749499  C 0.0515463917525774 8.26185704742819  0 8.13894455577822  0 8  C 0 7.86105544422178  0.0515463917525774 7.73814295257181  0.154639175257732 7.6312625250501  L 7.36082474226804 0.160320641282565  C 7.4639175257732 0.0534402137608545  7.58247422680413 0  7.71649484536082 0  C 7.85051546391753 0  7.96907216494845 0.0534402137608545  8.07216494845361 0.160320641282565  L 8.84536082474227 0.96192384769539  Z " fill-rule="nonzero" fill="#7f7f7f" stroke="none" transform="matrix(1 0 0 1 41 78 )" />
  </g>
</svg>