<?xml version="1.0" encoding="utf-8"?>
<svg version="1.1" xmlns:xlink="http://www.w3.org/1999/xlink" width="61px" height="55px" xmlns="http://www.w3.org/2000/svg">
  <g transform="matrix(1 0 0 1 -312 -637 )">
    <path d="M 342.5 643  C 356.22 643  367 652.46  367 664.5  C 367 676.54  356.22 686  342.5 686  C 328.78 686  318 676.54  318 664.5  C 318 652.46  328.78 643  342.5 643  Z " fill-rule="nonzero" fill="#ffffff" stroke="none" />
    <path d="M 342.5 640.5  C 357.62 640.5  369.5 651.06  369.5 664.5  C 369.5 677.94  357.62 688.5  342.5 688.5  C 327.38 688.5  315.5 677.94  315.5 664.5  C 315.5 651.06  327.38 640.5  342.5 640.5  Z " stroke-width="7" stroke="#ffffff" fill="none" />
  </g>
</svg>