<?xml version="1.0" encoding="utf-8"?>
<svg version="1.1" xmlns:xlink="http://www.w3.org/1999/xlink" width="78px" height="72px" xmlns="http://www.w3.org/2000/svg">
  <g transform="matrix(1 0 0 1 -306 -194 )">
    <path d="M 345 200  C 363.48 200  378 213.2  378 230  C 378 246.8  363.48 260  345 260  C 326.52 260  312 246.8  312 230  C 312 213.2  326.52 200  345 200  Z " fill-rule="nonzero" fill="#ffffff" stroke="none" />
    <path d="M 345 197.5  C 364.88 197.5  380.5 211.8  380.5 230  C 380.5 248.2  364.88 262.5  345 262.5  C 325.12 262.5  309.5 248.2  309.5 230  C 309.5 211.8  325.12 197.5  345 197.5  Z " stroke-width="7" stroke="#f95835" fill="none" />
  </g>
</svg>